<svg id="Layer_1" enable-background="new 0 0 512 512" height="512" viewBox="0 0 512 512" width="512" xmlns="http://www.w3.org/2000/svg"><g><path d="m350 30h-77v-15c0-8.284-6.716-15-15-15h-150c-8.284 0-15 6.716-15 15v15h-77c-8.284 0-15 6.716-15 15v451.999c0 8.284 6.716 15 15 15h334c8.284 0 15-6.716 15-15v-451.999c0-8.284-6.716-15-15-15zm-227 0h120v30h-120zm212 451.999h-304v-421.999h62v15c0 8.284 6.716 15 15 15h150c8.284 0 15-6.716 15-15v-15h62z"/><path d="m76.001 280c-8.261 0-15 6.739-15 15 0 8.262 6.739 15 15 15 8.262 0 15-6.738 15-15-.001-8.261-6.739-15-15-15z"/><path d="m136 280c-8.284 0-15 6.716-15 15s6.716 15 15 15h153.997c8.284 0 15-6.716 15-15s-6.716-15-15-15z"/><path d="m76.001 340.001c-8.261 0-15 6.738-15 15 0 8.261 6.739 15 15 15 8.262 0 15-6.739 15-15-.001-8.262-6.739-15-15-15z"/><path d="m290.001 340h-154.001c-8.284 0-15 6.716-15 15s6.716 15 15 15h154.001c8.284 0 15-6.716 15-15s-6.715-15-15-15z"/><path d="m76.001 400c-8.261 0-15 6.738-15 15 0 8.261 6.739 15 15 15 8.262 0 15-6.739 15-15-.001-8.262-6.739-15-15-15z"/><path d="m290.272 400h-154.272c-8.284 0-15 6.716-15 15s6.716 15 15 15h154.271c8.284 0 15-6.716 15-15s-6.715-15-14.999-15z"/><path d="m146.001 186.999h21.999v22c0 8.284 6.716 15 15 15s15-6.716 15-15v-22h21.999c8.284 0 15-6.716 15-15s-6.716-15-15-15h-21.999v-21.999c0-8.284-6.716-15-15-15s-15 6.716-15 15v21.999h-21.999c-8.284 0-15 6.716-15 15s6.716 15 15 15z"/><path d="m510.996 147.927c-.011-2.151-.49-4.307-1.398-6.257l-40.5-87c-2.461-5.288-7.765-8.67-13.598-8.67s-11.137 3.382-13.599 8.67c0 0-40.491 86.981-40.5 87-.73 1.568-1.173 3.256-1.333 4.978-.039.426-.063.853-.065 1.28.001.024-.003 288.072-.003 288.072 0 6.528 4.178 12.067 10 14.128v46.872c0 8.284 6.716 15 15 15h61c8.284 0 15-6.716 15-15v-46.872c5.822-2.061 10-7.6 10-14.128 0 0-.004-288.048-.004-288.073zm-29.996 213.072h-51v-197.999h51zm-51 30h51v30.001h-51zm25.5-294.457 16.972 36.458h-33.943zm15.5 385.458h-31v-31h31z"/></g></svg>