<svg id="Capa_1" enable-background="new 0 0 512 512" height="512" viewBox="0 0 512 512" width="512" xmlns="http://www.w3.org/2000/svg" xmlns:xlink="http://www.w3.org/1999/xlink"><linearGradient id="SVGID_1_" gradientUnits="userSpaceOnUse" x1="256" x2="256" y1="512" y2="0"><stop offset="0" stop-color="#5558ff"/><stop offset="1" stop-color="#00c0ff"/></linearGradient><g><g><path d="m376 0h-240c-24.813 0-45 20.187-45 45v422c0 24.813 20.187 45 45 45h240c24.813 0 45-20.187 45-45v-422c0-24.813-20.187-45-45-45zm15 467c0 8.271-6.729 15-15 15h-240c-8.271 0-15-6.729-15-15v-15h270zm0-45h-270v-332h270zm0-362h-270v-15c0-8.271 6.729-15 15-15h240c8.271 0 15 6.729 15 15zm-225 301h180c8.284 0 15-6.716 15-15v-180c0-8.284-6.716-15-15-15h-180c-8.284 0-15 6.716-15 15v180c0 8.284 6.716 15 15 15zm75-180h30v35.729l-8.292-4.146c-4.223-2.111-9.193-2.111-13.416 0l-8.292 4.146zm-60 0h30v60c0 5.199 2.692 10.027 7.114 12.76s9.945 2.981 14.594.657l23.292-11.646 23.292 11.646c4.668 2.334 10.191 2.065 14.594-.657 4.423-2.733 7.114-7.561 7.114-12.76v-60h30v150h-150z" fill="url(#SVGID_1_)"/></g></g></svg>